<svg xmlns="http://www.w3.org/2000/svg" height="1024" preserveAspectRatio="none" style="display: block;" version="1.1" viewBox="0 0 2048 2048" width="1024">
<path d="M 0 0 L 2048 0 L 2048 2048 L 0 2048 L 0 0 z" fill="rgb(254,254,254)" transform="translate(0,0)"></path>
<path d="M 1000.1 384.429 C 1046.01 380.958 1107.97 389.606 1152.47 399.802 C 1245.75 421.172 1333.81 472.051 1403.4 537.299 C 1510.02 636.003 1572.73 773.25 1577.56 918.462 C 1578.17 936.954 1581.29 967.87 1567.67 981.575 C 1553.68 995.656 1528.84 995.638 1515.1 981.083 C 1504.1 969.443 1504.72 958.557 1504.83 943.828 C 1492.07 943.257 1450.66 943.959 1441.8 942.084 C 1436.22 940.889 1431 938.385 1426.58 934.779 C 1410.15 921.368 1408.96 895.297 1423.3 880.276 C 1440.61 862.131 1476.78 869.017 1500.48 868.562 C 1481.56 771.337 1443.33 683.95 1372.2 613.187 C 1355.77 629.381 1331.42 661.316 1309.55 661.311 C 1298.86 661.35 1288.63 656.982 1281.26 649.235 C 1271.09 638.35 1265.95 616.812 1275.04 605.107 C 1285.87 591.15 1304.61 572.858 1317.9 561.388 C 1260.71 516.535 1194.09 485.254 1123.06 469.906 C 1101.92 465.526 1081.98 464.234 1060.91 460.68 C 1060.65 487.029 1068.11 522.303 1043.89 538.378 C 1029.69 545.519 1009.59 546.166 997.758 533.671 C 983.509 518.62 988.014 494.96 987.534 476.002 C 987.4 470.719 987.705 464.913 987.793 459.633 C 893.986 468.656 804.611 503.897 729.89 561.326 C 742.671 573.816 755.949 586.397 768.136 599.476 C 774.205 605.99 777.488 615.121 777.454 624.065 C 777.422 634.065 773.283 643.611 766.006 650.47 C 758.991 657.23 749.485 660.776 739.756 660.261 C 717.409 659.051 691.458 626.172 676.195 609.627 C 611.049 680.616 561.797 772.157 550.631 868.729 C 568.684 869.291 587.283 867.901 605.177 869.978 C 634.752 873.412 647.146 910.697 628.089 932.472 C 623.786 937.427 618.105 940.988 611.771 942.702 C 600.924 945.585 559.984 943.602 544.488 944.372 C 544.06 956.536 544.458 968.32 536.239 978.29 C 523.127 994.193 496.237 993.982 481.453 980.6 C 472.906 972.864 470.509 962.938 470.137 951.877 C 469.325 927.753 470.888 903.652 473.555 879.687 C 486.136 764.696 534.551 656.572 611.951 570.605 C 711.263 459.178 851.04 392.134 1000.1 384.429 z" fill="#1A2332" transform="translate(0,0)"></path>
<path d="M 599.566 1111.38 C 696.364 1099.2 783.366 1182.72 779.303 1279.03 C 777.233 1328.12 760.819 1361.94 725.55 1395.91 C 755.034 1413.46 768.671 1422.92 792.378 1449.53 C 838.582 1501.38 853.654 1558.35 850.79 1626.67 C 850.317 1637.95 845.83 1649.41 836.953 1656.74 C 829.656 1662.77 820.198 1665.54 810.798 1664.4 C 779.023 1660.33 777.643 1633.49 777.853 1608.58 C 778.148 1573.61 766.641 1536.58 745.605 1508.45 C 716.449 1469.46 678.648 1450.25 631.089 1443.16 C 542.218 1437.74 461.04 1497.05 451.681 1588.64 C 449.178 1613.14 457.49 1643.36 433.534 1659.2 C 425.481 1664.5 415.62 1666.31 406.212 1664.2 C 361.404 1654.16 375.672 1577.07 383.75 1545.38 C 400.226 1480.74 446.861 1428.68 503.913 1395.47 C 497.87 1389.37 492.075 1383.28 486.692 1376.58 C 440.24 1318.69 438.073 1233.08 484.864 1174.03 C 513.135 1138.59 554.471 1116.02 599.566 1111.38 z" fill="#1A2332" transform="translate(0,0)"></path>
<path d="M 608.964 1183.85 C 659.135 1180.61 702.422 1218.68 705.616 1268.86 C 708.809 1319.03 670.698 1362.28 620.521 1365.43 C 570.412 1368.57 527.232 1330.52 524.043 1280.41 C 520.854 1230.31 558.861 1187.09 608.964 1183.85 z" fill="rgb(254,254,254)" transform="translate(0,0)"></path>
<path d="M 1427.16 1111.42 C 1555.01 1104.83 1639.02 1244.22 1577.48 1354.74 C 1568.42 1371 1558.71 1382.54 1546.52 1396.22 C 1630.4 1446.59 1676.05 1528.28 1669.62 1626.8 C 1667.01 1666.85 1621.06 1678.82 1601.58 1644.45 C 1595.44 1633.62 1597.35 1612.26 1597.1 1599.26 C 1596.97 1591.37 1596.15 1583.49 1594.67 1575.73 C 1589.82 1548.17 1577.84 1522.35 1559.91 1500.86 C 1528.31 1463.59 1489.1 1446.31 1441.21 1442.16 C 1404.52 1440.62 1368.4 1451.59 1338.76 1473.26 C 1300.89 1500.56 1275.96 1540.45 1271.79 1587.39 C 1270.51 1603.45 1271.79 1619.03 1269.63 1635.06 C 1266.71 1656.65 1245.86 1667.87 1225.31 1663.52 C 1215.59 1661.48 1207.11 1655.61 1201.77 1647.24 C 1190.3 1629.07 1196.62 1572.99 1201.99 1552.47 C 1221.34 1478.51 1257.41 1435.6 1320.67 1396.85 C 1309.35 1385.39 1299.1 1374.05 1291.14 1359.98 C 1228.82 1249.82 1301.22 1119.24 1427.16 1111.42 z" fill="#1A2332" transform="translate(0,0)"></path>
<path d="M 1422.63 1185.32 C 1472.28 1179.74 1517.08 1215.38 1522.82 1265 C 1528.56 1314.63 1493.07 1359.55 1443.46 1365.45 C 1393.62 1371.37 1348.45 1335.69 1342.69 1285.83 C 1336.92 1235.97 1372.76 1190.92 1422.63 1185.32 z" fill="rgb(254,254,254)" transform="translate(0,0)"></path>
<path d="M 1198.27 664.19 C 1217.49 661.723 1236.54 670.642 1241.63 690.398 C 1243.51 697.936 1242.93 705.879 1239.96 713.059 C 1235.58 723.819 1213.67 753.464 1205.97 764.91 C 1181 802.02 1154.01 838.474 1130.9 876.86 C 1131.45 878.144 1131.97 879.441 1132.45 880.75 C 1140.63 902.955 1137.31 933.354 1127.28 954.503 C 1098.44 1015.25 1032.72 1037.5 972.252 1009.23 C 954.871 999.949 941.343 988.896 930.395 972.345 C 913.426 946.408 907.47 914.788 913.838 884.456 C 920.059 855.495 937.614 830.23 962.586 814.299 C 992.039 795.666 1023.72 794.872 1056.69 802.439 C 1065 794.876 1073.67 785.174 1081.75 777.083 C 1104.61 754.1 1127.22 730.883 1149.6 707.438 C 1162.88 693.606 1180.92 670.489 1198.27 664.19 z" fill="#1A2332" transform="translate(0,0)"></path>
<path d="M 1021.91 871.627 C 1042.5 870.582 1060.09 886.313 1061.35 906.894 C 1062.61 927.474 1047.06 945.23 1026.49 946.7 C 1013 947.664 1000.03 941.307 992.521 930.051 C 985.016 918.794 984.135 904.375 990.214 892.289 C 996.293 880.203 1008.39 872.313 1021.91 871.627 z" fill="rgb(254,254,254)" transform="translate(0,0)"></path>
<metadata><recraft-signature>{"signed_by": "recraft", "signature_b64": "pl46Uo6nGBXIcBtCqfkeiIA/alyjtMsdcyfEtKZ289qI4FL2f220rZSWdmNhaaIBermbnGPMwkjJtCQygDz1CA==", "signing_algo": "Ed25519", "generation_timestamp": 1777295833, "identifier": "bf9e3c52-78a4-48a9-a5bb-c8244ca31089"}</recraft-signature></metadata></svg>