<svg xmlns="http://www.w3.org/2000/svg" height="1024" preserveAspectRatio="none" style="display: block;" version="1.1" viewBox="0 0 2048 2048" width="1024">
<path d="M 0 0 L 2048 0 L 2048 2048 L 0 2048 L 0 0 z" fill="rgb(255,255,255)" transform="translate(0,0)"></path>
<path d="M 399.185 345.307 C 406.925 344.377 425.924 344.88 434.695 344.893 L 502.343 344.999 L 727.268 345.049 L 1078.35 345.307 L 1217.92 345.024 C 1241.97 345.006 1266.21 344.838 1290.26 345.206 C 1299.6 345.349 1307.86 348.219 1315.86 352.957 C 1329.36 361.128 1338.96 374.447 1342.44 389.845 C 1344.6 399.154 1344.17 419.94 1344.22 430.446 L 1344.34 492.3 L 1344.08 741.232 L 1344.13 1363.3 L 1344.07 1543.1 C 1344.09 1576.33 1344.27 1609.55 1343.89 1642.78 C 1343.67 1662.25 1334.14 1678.39 1319.45 1690.58 C 1310.9 1697.68 1301.87 1700.51 1291.26 1702.89 C 1276.72 1704.22 1255.18 1703.66 1240.05 1703.67 L 1151.51 1703.65 L 885.615 1703.82 L 563.217 1703.73 L 463.568 1703.73 C 443.876 1703.78 424.622 1703.78 404.64 1703.5 C 375.715 1703.09 347.036 1677.56 344.503 1648.46 C 343.282 1634.43 344.071 1617.22 344.145 1602.79 L 344.506 1511.69 L 344.19 1209.68 L 344.117 675.852 L 344.376 493.775 C 344.492 462.748 344.169 431.387 345.021 400.384 C 345.837 370.697 370.948 349.539 399.185 345.307 z" fill="#1A2332" transform="translate(0,0)"></path>
<path d="M 948.372 410.5 L 1279.96 410.858 L 1280 1637.8 C 1222.05 1639.08 1160.18 1638.05 1101.84 1638.1 L 744.5 1638.03 L 411.436 1638.17 L 411.1 1048.15 L 410.971 636.5 C 410.498 561.508 410.614 486.514 411.318 411.525 C 589.279 408.483 770.139 411.946 948.372 410.5 z" fill="rgb(255,255,255)" transform="translate(0,0)"></path>
<path d="M 517.871 770.356 C 568.278 768.214 621.439 771.733 672.086 770.397 C 685.276 770.05 701.234 779.235 702.378 793.4 C 704.169 815.559 703.406 839.51 703.45 862.019 L 703.581 924.734 C 703.611 950.903 709.979 983.267 676.74 989.682 L 580.681 989.65 C 561.709 989.714 523.928 992.216 504.74 986.218 C 498.793 984.358 489.807 969.369 489.447 962.168 C 488.365 940.519 488.88 918.113 488.867 896.203 L 488.862 836.218 C 488.884 809.953 483.217 775.118 517.871 770.356 z" fill="#1A2332" transform="translate(0,0)"></path>
<path d="M 554.89 837.355 C 582.689 837.291 610.487 837.396 638.285 837.669 C 638.546 866.254 638.627 894.841 638.527 923.426 L 554.934 923.876 C 554.54 895.518 554.705 865.713 554.89 837.355 z" fill="rgb(255,255,255)" transform="translate(0,0)"></path>
<path d="M 513.271 1058.28 C 522.349 1057.76 531.807 1057.9 540.902 1057.93 C 584.739 1058.07 628.961 1057.42 672.737 1058.09 C 691.354 1058.38 704.017 1070.37 703.995 1089.11 C 703.932 1140.94 704.191 1192.95 703.62 1244.78 C 703.445 1261.08 694.998 1271.04 679.58 1275.74 C 662.924 1278.89 627.546 1276.85 609.523 1276.85 C 581.992 1276.86 548.625 1278.62 521.623 1276.48 C 516.366 1276.07 510.235 1275 505.402 1272.85 C 499.214 1270.1 492.959 1261.6 490.755 1255.29 C 487.726 1246.64 487.87 1100.18 489.239 1083.36 C 489.513 1079.99 490.071 1077.03 491.709 1074.03 C 496.507 1065.25 504.049 1061.25 513.271 1058.28 z" fill="#1A2332" transform="translate(0,0)"></path>
<path d="M 554.1 1123.89 L 638.667 1123.68 L 638.801 1211.55 C 612.407 1212.21 580.398 1212.14 554.121 1211.55 L 554.1 1123.89 z" fill="rgb(255,255,255)" transform="translate(0,0)"></path>
<path d="M 513.473 591.236 C 535.738 590.232 566.931 591.313 590.125 591.309 L 748.391 591.285 L 1151.81 590.828 C 1156.54 590.856 1172.88 590.762 1176.25 592.505 C 1193.66 601.518 1202.2 620.77 1192.59 638.591 C 1186.76 649.404 1180.69 652.664 1170.78 656.201 C 1165.39 657.625 1135.69 657.13 1127.63 657.13 L 1033.4 657.099 L 619.976 657.099 C 601.916 657.105 517.4 659.393 506.725 654.435 C 498.057 650.41 491.806 642.857 488.887 633.805 C 486.037 624.968 486.616 614.916 491.277 606.785 C 496.056 598.448 504.499 593.747 513.473 591.236 z" fill="#1A2332" transform="translate(0,0)"></path>
<path d="M 512.561 1391.15 C 540.968 1389.81 580.607 1391.06 609.71 1391.1 L 800.513 1391.4 L 1049.81 1391.08 C 1087.62 1391.07 1125.42 1390.83 1163.22 1391.11 C 1180.22 1391.23 1190.7 1397.94 1196.48 1414.37 C 1199.89 1424.05 1198.03 1430.04 1193.74 1439.17 C 1188.86 1449.56 1180.75 1452.99 1170.57 1456.36 C 1139.32 1457.15 1104.65 1456.16 1073.08 1456.26 L 844.703 1456.81 L 608.042 1456.57 C 592.481 1456.47 515.67 1458.43 505.916 1453.85 C 497.908 1450.09 491.703 1443.32 488.648 1435.02 C 480.457 1412.71 491.531 1397.98 512.561 1391.15 z" fill="#1A2332" transform="translate(0,0)"></path>
<path d="M 1156.06 853.5 C 1177.18 852.577 1196.14 861.772 1196.84 885.328 C 1197.1 894.875 1193.56 904.135 1187.02 911.089 C 1175.04 923.558 1147.97 920.052 1131.03 920.013 L 1067.5 920.008 L 842.75 920.081 C 832.342 920.277 823.266 919.235 814.967 912.231 C 807.506 905.961 803.016 896.85 802.589 887.113 C 801.982 871.821 812.064 856.646 827.91 854.782 C 839.946 853.366 852.464 853.848 864.61 853.842 L 926.872 853.86 C 1002.66 853.891 1080.41 854.714 1156.06 853.5 z" fill="#1A2332" transform="translate(0,0)"></path>
<path d="M 834.844 1130.36 L 1052.35 1130.17 L 1123.72 1130.12 C 1138.36 1130.11 1168.54 1128.04 1180.91 1134.21 C 1197.23 1142.35 1202.1 1166.03 1191.25 1180.75 C 1184.18 1190.33 1178.24 1192.4 1166.99 1194.96 C 1090.26 1194.58 1013.52 1194.68 936.788 1195.26 L 870.448 1195.21 C 843.161 1195.12 803.733 1201.57 802.622 1161.57 C 802.051 1141.03 815.976 1132.38 834.844 1130.36 z" fill="#1A2332" transform="translate(0,0)"></path>
<path d="M 1539.94 510.459 L 1601.69 510.072 C 1613.09 510.032 1629.47 509.488 1640.24 510.692 C 1647.29 511.453 1654.21 513.17 1660.8 515.794 C 1679.68 523.345 1691.41 536.937 1699.69 555.463 C 1703.47 563.919 1704.6 573.701 1704.66 582.895 C 1705.15 657.785 1704.98 732.801 1704.9 807.683 L 1704.98 1189.9 L 1705.14 1379.57 L 1705.36 1437.59 C 1705.41 1450.37 1706.72 1470.83 1702.24 1482.16 C 1694.62 1501.49 1685.65 1521.08 1677.32 1540.13 C 1656.14 1587.76 1635.41 1635.59 1615.13 1683.61 C 1609.48 1693.61 1599.09 1701.37 1587.41 1702.02 C 1578.61 1702.5 1569.99 1699.43 1563.47 1693.49 C 1553.31 1684.28 1544.77 1657.53 1538.95 1644.01 L 1500.08 1554.16 C 1490.78 1532.35 1479.68 1509.25 1470.56 1487.83 C 1465.12 1475.02 1467.3 1427.62 1467.29 1412.46 L 1467.06 1304.77 L 1467.11 931.706 L 1467.47 698.96 L 1467.24 622.592 C 1467.16 591.208 1462.65 557.301 1486.36 533.07 C 1501.82 517.266 1518.2 511.278 1539.94 510.459 z" fill="#1A2332" transform="translate(0,0)"></path>
<path d="M 1631.24 739.493 C 1633.77 739.349 1635.41 738.935 1637.52 740.231 C 1639.16 744.661 1638.26 847.625 1638.28 860.322 L 1638.23 1301.05 L 1638.11 1405.69 C 1638.08 1421.4 1638.56 1445.25 1637.2 1460.42 C 1636.37 1469.74 1622.36 1499.01 1617.67 1509.58 L 1584.63 1583.64 C 1580.02 1573.98 1575.48 1564.28 1571.02 1554.55 C 1560.3 1530.73 1539.76 1487.78 1531.39 1463.5 C 1529.63 1458.38 1530.71 1409.7 1530.7 1401.41 L 1530.69 1259.87 L 1531 739.711 L 1631.24 739.493 z" fill="rgb(255,255,255)" transform="translate(0,0)"></path>
<path d="M 1536.45 575.18 C 1552.45 575.052 1627.79 572.306 1635.99 577.627 C 1637.79 578.796 1638.36 582.207 1638.63 584.248 C 1640.36 597.422 1638.7 612.29 1638.68 625.664 C 1638.66 638.985 1639.69 652.547 1638.88 665.834 C 1638.74 668.093 1638.8 670.002 1637.38 671.862 L 1634.25 672.232 L 1531.04 672.784 L 1530.93 614.996 C 1530.91 604.577 1530.53 593.389 1531.34 583.033 C 1531.71 578.316 1533.32 577.664 1536.45 575.18 z" fill="rgb(255,255,255)" transform="translate(0,0)"></path>
<metadata><recraft-signature>{"signed_by": "recraft", "signature_b64": "wZg4AcNcNplujje8NTTLo5CpBg8zSwL6RHwWrCdGh634qgFtpHUt2Bms1zg+l4wADysfAq19EQGAXxVZEWzjDQ==", "signing_algo": "Ed25519", "generation_timestamp": 1777314311, "identifier": "2a2edd21-f079-4e3f-b4eb-33a6e4a759b9"}</recraft-signature></metadata></svg>