<svg xmlns="http://www.w3.org/2000/svg" height="1024" preserveAspectRatio="none" style="display: block;" version="1.1" viewBox="0 0 2048 2048" width="1024">
<path d="M 0 0 L 2048 0 L 2048 2048 L 0 2048 L 0 0 z" fill="rgb(255,255,255)" transform="translate(0,0)"></path>
<path d="M 1537.59 281.417 C 1576.24 278.318 1622.32 289.509 1656.14 308.326 C 1707.01 337.269 1744.39 385.129 1760.16 441.496 C 1775.07 495.536 1765.9 559.219 1738.31 607.774 C 1718.85 642.015 1680.42 676.725 1651.98 704.876 L 1579.1 777.859 L 1288.86 1068.46 L 817.411 1540.67 L 714.331 1643.34 C 690.467 1667.32 666.762 1691.41 642.527 1715.03 C 622.048 1734.99 602.054 1727.09 581.126 1714.14 C 558.005 1738.95 542.889 1750.44 510.071 1761.11 C 455.525 1774.32 407.92 1765.42 367.609 1725.29 C 324.671 1682.55 284.168 1650 283.676 1583.68 C 283.275 1529.56 302.065 1502.72 338.147 1465.45 C 331.932 1457.18 326.167 1447.66 325.249 1437.35 C 324.352 1427.28 326.276 1414.28 333.424 1406.76 C 352.751 1386.41 373.628 1366.72 393.501 1346.92 L 515.323 1225.12 L 901.3 840.139 L 1225.65 515.541 C 1260.85 479.62 1296.94 444.425 1331.9 408.433 C 1348.13 391.628 1364.47 374.941 1380.94 358.373 C 1391.47 347.729 1403.3 335.121 1414.99 326.008 C 1449.09 299.404 1494.73 284.468 1537.59 281.417 z" fill="#1A2332" transform="translate(0,0)"></path>
<path d="M 1322.43 536.171 C 1330.9 540.796 1359.49 571.86 1368.04 580.464 L 1462.03 674.414 C 1478.63 691.209 1496.05 710.626 1512.93 726.558 C 1437.84 803.099 1362.19 879.086 1285.98 954.514 L 843.996 1396.99 C 787.028 1454.74 729.751 1512.19 672.165 1569.33 L 634.575 1607.18 C 630.113 1611.68 618.067 1624.41 613.311 1627.56 C 566.932 1583.27 521.355 1538.15 476.602 1492.21 C 461.939 1477.27 433.807 1451.23 421.762 1436.34 C 442.572 1412.72 477.249 1380.38 500.745 1357.11 L 643.348 1214.9 L 1102.69 754.946 L 1272.64 585.069 C 1288.68 568.903 1307.13 552.28 1322.43 536.171 z" fill="rgb(255,255,255)" transform="translate(0,0)"></path>
<path d="M 1243.78 668.36 C 1287.2 664.365 1303.24 678.727 1331.33 708.737 C 1352.64 730.219 1376.74 746.684 1381.34 778.803 C 1386.83 817.21 1372.67 842.801 1345.22 868.191 C 1326.02 885.954 1306.84 906.238 1288.54 924.532 C 1262.14 950.915 1246.68 975.015 1208.2 981.12 C 1162.2 984.71 1137.3 957.461 1106.96 927.547 C 1074.37 895.405 1050.53 844.909 1082.03 803.557 C 1091.75 791.733 1103.43 781.507 1114.2 770.7 C 1139.38 745.429 1163.99 719.719 1189.69 694.962 C 1206.72 678.553 1220.48 671.613 1243.78 668.36 z" fill="#1A2332" transform="translate(0,0)"></path>
<path d="M 1250.16 745.743 C 1263.32 746.427 1271.66 760.618 1280.58 769.404 C 1289.62 778.32 1303.35 785.147 1300.57 799.459 C 1297.85 803.099 1275.11 826.124 1270.88 829.98 C 1253.71 845.635 1214.72 890.812 1197.14 902.168 C 1187.39 899.617 1153.17 861.239 1145.75 851.366 C 1155.89 837.36 1187.73 808.279 1201.8 793.716 C 1213.72 781.376 1238.13 755.373 1250.16 745.743 z" fill="#1A2332" transform="translate(0,0)"></path>
<path d="M 1543.24 362.41 C 1621.47 360.235 1684.96 416.764 1683.77 496.451 C 1682.89 554.762 1659.3 579.735 1620.37 618.015 L 1570.55 667.02 L 1545.68 642.497 C 1540.05 637.218 1534.46 631.472 1529.02 625.967 C 1479.67 575.998 1429.13 526.802 1380.17 476.496 C 1394.09 461.541 1409.61 447.252 1423.53 432.693 C 1461.7 392.768 1484.97 366.749 1543.24 362.41 z" fill="#1A2332" transform="translate(0,0)"></path>
<path d="M 396.46 1528.86 C 414.771 1544.54 439.949 1572.83 457.6 1590.3 C 478.712 1611.18 501.915 1633.33 521.448 1655.28 C 512.688 1666.02 498.82 1676.33 486.259 1682.28 C 464.118 1689.16 444.724 1685.76 429.331 1667.93 C 407.766 1642.94 364.993 1617.51 364.282 1581.09 C 363.813 1557.08 381.614 1543.83 396.46 1528.86 z" fill="rgb(255,255,255)" transform="translate(0,0)"></path>
<metadata><recraft-signature>{"signed_by": "recraft", "signature_b64": "OrFNuhim3EjOesJqAOreb0vHpugwGkp6wl8/3uB/DT6G2Y1v1tjY9iNOgo6qYc7resXqu48hj6tEPOjyulPrAg==", "signing_algo": "Ed25519", "generation_timestamp": 1777314300, "identifier": "d541e177-9eb0-47e4-9b37-b936f350551c"}</recraft-signature></metadata></svg>