<svg xmlns="http://www.w3.org/2000/svg" height="1024" preserveAspectRatio="none" style="display: block;" version="1.1" viewBox="0 0 2048 2048" width="1024">
<path d="M 0 0 L 2048 0 L 2048 2048 L 0 2048 L 0 0 z" fill="rgb(255,255,255)" transform="translate(0,0)"></path>
<path d="M 991.026 311.415 C 1000.21 310.306 1024.16 310.683 1033.77 310.782 C 1127.56 311.596 1219.35 337.976 1299.27 387.082 C 1419.75 461.346 1505.6 580.629 1537.76 718.454 C 1545.96 755.7 1550.12 793.722 1550.15 831.86 C 1550.82 941.767 1522.33 1028.74 1463.78 1121.58 L 1537.81 1122.33 C 1568.22 1122.53 1597.67 1118.65 1621.74 1141.14 C 1640.08 1158.27 1646.78 1176.72 1646.97 1201.56 C 1647.64 1287.71 1647.86 1373.98 1647.44 1460.12 L 1647.36 1531.29 C 1647.32 1561.06 1650.38 1586.99 1627.4 1609.93 C 1609.76 1627.54 1593.57 1630.88 1569.32 1631.35 L 1569.5 1648.27 C 1569.74 1675.05 1570.48 1697.43 1549.67 1718.28 C 1541.37 1726.68 1531 1732.73 1519.6 1735.82 C 1504.99 1739.63 1476.82 1738.04 1460.5 1737.95 L 1398.58 1738.09 C 1377.1 1738.03 1358.69 1732.47 1343.12 1716.9 C 1320.1 1693.86 1324.59 1663.38 1324.85 1633.03 L 1054.48 1633.62 L 723.013 1633.4 C 723.229 1670.34 728.24 1719.6 684.492 1733.99 C 652.657 1744.46 599.834 1735.38 565.419 1738.41 C 556.376 1739.21 538.464 1738.36 530.052 1736.31 C 518.338 1733.53 507.631 1727.55 499.137 1719.02 C 474.998 1694.69 479.956 1663.58 480.053 1631.2 C 457.531 1631.06 440.171 1625.99 422.923 1610.57 C 410.346 1599.32 401.389 1579.64 401.03 1562.86 C 400.421 1534.45 400.903 1505.62 400.925 1477.08 L 400.87 1319.87 L 400.825 1233.48 C 400.826 1221.16 400.195 1196.59 402.027 1185.31 C 404.212 1171.28 410.546 1158.24 420.212 1147.85 C 430.801 1136.82 444.313 1129.03 459.167 1125.39 C 473.457 1121.94 501.307 1123.36 517.068 1123.51 C 540.483 1123.73 562.553 1124.07 586.128 1123.36 C 533.354 1044.6 506.586 971.013 499.061 876.138 C 488.881 737.945 532.995 601.229 622.028 495.049 C 693.896 411.019 790.168 351.478 897.451 324.712 C 927.108 317.584 960.678 313.806 991.026 311.415 z" fill="#1A2332" transform="translate(0,0)"></path>
<path d="M 1001.72 387.458 C 1248.13 375.061 1457.94 564.76 1470.34 811.169 C 1482.75 1057.58 1293.06 1267.39 1046.65 1279.81 C 800.228 1292.22 590.401 1102.52 577.993 856.099 C 565.586 609.677 755.297 399.856 1001.72 387.458 z" fill="rgb(255,255,255)" transform="translate(0,0)"></path>
<path d="M 1019.82 624.304 C 1037.5 622.839 1059.16 634.545 1061.68 652.507 C 1064.07 669.553 1062.94 691.557 1062.89 708.969 C 1062.7 743.596 1062.74 778.223 1063.01 812.849 C 1080.34 828.115 1097.37 845.062 1113.99 861.369 C 1127.58 874.699 1153.5 894.185 1156.76 913.562 C 1160.86 937.956 1144.56 954.094 1121.33 957.847 C 1114.33 957.67 1101.88 955.742 1096.58 951.079 C 1066.06 924.65 1038.22 893.299 1008.76 865.873 C 980.523 839.579 985.594 834.888 985.691 798.021 L 985.662 744.418 L 985.476 690.994 C 985.345 660.644 980.555 630.414 1019.82 624.304 z" fill="#1A2332" transform="translate(0,0)"></path>
<path d="M 1020.32 1095.27 C 1058.8 1093.47 1063.17 1125.97 1062.29 1154.67 C 1061.38 1184.25 1064.1 1204.33 1029.07 1213.07 C 990.601 1213.8 984.007 1188.63 985.109 1156.17 C 986.122 1126.32 980.875 1101.16 1020.32 1095.27 z" fill="#1A2332" transform="translate(0,0)"></path>
<path d="M 1016.01 457.15 C 1037.1 455.029 1054.62 462.134 1060.91 484.327 C 1063.88 495.383 1062.7 507.341 1062.97 518.591 C 1063.6 544.879 1061.75 565.261 1032.24 572.884 C 990.494 578.361 984.765 547.05 985.886 513.934 C 986.796 487.065 982.216 466.268 1016.01 457.15 z" fill="#1A2332" transform="translate(0,0)"></path>
<path d="M 769.637 554.232 C 797.98 551.133 811.535 572.812 830.067 590.928 C 853.214 613.557 845.237 649.484 812.527 658.994 C 789.476 661.079 779.336 650.77 764.312 635.426 C 756.037 626.975 743.692 616.951 740.411 605.124 C 733.368 579.729 745.279 561.691 769.637 554.232 z" fill="#1A2332" transform="translate(0,0)"></path>
<path d="M 681.038 794.336 C 709.805 792.439 751.304 788.931 758.175 825.656 C 760.328 836.901 757.654 848.534 750.806 857.709 C 744.339 866.438 735.901 871.447 725.252 873.092 C 707.263 873.794 675.628 877.66 661.557 866.462 C 632.398 843.257 642.404 799.01 681.038 794.336 z" fill="#1A2332" transform="translate(0,0)"></path>
<path d="M 1268.02 554.29 C 1275.24 553.943 1282.41 555.549 1288.8 558.941 C 1308.29 569.138 1317.24 593.612 1305.79 613.467 C 1298.13 625.317 1286.7 634.803 1276.72 644.65 C 1268.26 652.997 1263.69 656.446 1252.36 659.048 C 1231.51 659.199 1211.62 650.559 1207.34 628.086 C 1205.27 617.59 1207.56 606.702 1213.69 597.935 C 1220.56 588.074 1243.77 564.573 1254.73 558.386 C 1258.81 556.077 1263.43 555.102 1268.02 554.29 z" fill="#1A2332" transform="translate(0,0)"></path>
<path d="M 799.966 1007.17 C 808.214 1006.33 816.028 1007.11 823.602 1010.69 C 833.26 1015.15 840.607 1023.45 843.861 1033.58 C 851.59 1058.11 834.004 1071.79 817.778 1086.14 C 806.284 1096.31 799.22 1104.69 783.974 1108.94 C 773.446 1109.59 766.858 1109.4 757.222 1103.51 C 748.077 1097.93 741.538 1088.94 739.059 1078.52 C 737.19 1070.43 738.324 1057.76 743.476 1051.73 C 756.027 1037.03 781.155 1011.15 799.966 1007.17 z" fill="#1A2332" transform="translate(0,0)"></path>
<path d="M 1238.96 1006.36 C 1258.58 1006.68 1267.24 1016.68 1280.8 1029.21 C 1292.32 1040.13 1306.44 1051.13 1308.34 1068.15 C 1311.04 1092.36 1295.96 1106.64 1273.28 1109.72 C 1264.02 1109.5 1253.12 1106.95 1246.03 1100.52 C 1230.51 1086.11 1205.52 1069.49 1203.2 1046.81 C 1200.77 1023.12 1216.81 1008.88 1238.96 1006.36 z" fill="#1A2332" transform="translate(0,0)"></path>
<path d="M 1330.63 794.409 C 1348.91 794.308 1372.66 791.845 1387.27 802.887 C 1395.74 809.383 1401.25 819.009 1402.55 829.604 C 1403.85 840.291 1400.75 851.047 1393.94 859.39 C 1386.32 868.726 1377.53 872.415 1366.02 873.821 C 1346.27 873.405 1322.5 876.825 1307.23 865.365 C 1298.64 858.999 1293.02 849.394 1291.7 838.783 C 1290.42 828.046 1293.56 817.251 1300.41 808.882 C 1309.02 798.272 1317.89 795.466 1330.63 794.409 z" fill="#1A2332" transform="translate(0,0)"></path>
<path d="M 1400.82 1199.79 C 1456.44 1200.66 1513.58 1200.01 1569.31 1200 C 1568.02 1317.5 1571.66 1438.02 1569.39 1554.93 L 493.898 1555.41 L 478.783 1555.06 L 478.971 1200.98 C 533.753 1201.17 594.98 1199.11 648.8 1200.95 C 669.818 1218.75 681.39 1232.61 705.508 1250.62 C 796.502 1317.87 906.398 1354.69 1019.54 1355.84 C 1164.08 1357.77 1297.83 1300.05 1400.82 1199.79 z" fill="rgb(255,255,255)" transform="translate(0,0)"></path>
<path d="M 895.384 1391.31 C 910.91 1390.28 961.736 1388.62 973.603 1394.82 C 980.755 1398.56 987.312 1405.18 989.312 1413.19 C 992.122 1424.45 992.4 1480.79 990.456 1493.58 C 989.848 1497.59 988.493 1501.17 986.241 1504.55 C 981.518 1511.64 974.765 1515.75 966.534 1517.39 C 951.671 1518.48 899.349 1519.94 886.745 1515.11 C 879.97 1512.51 874.709 1506 872.094 1499.39 C 868.536 1490.4 868.762 1414.9 873.271 1406.15 C 877.625 1397.69 886.722 1393.76 895.384 1391.31 z" fill="#1A2332" transform="translate(0,0)"></path>
<path d="M 1083.57 1391.29 C 1104.57 1390.75 1125.97 1391.54 1147.01 1391.67 C 1159.96 1391.76 1176.05 1400.99 1176.85 1415.07 C 1178.27 1440.48 1177.56 1467.19 1176.83 1492.65 C 1176.37 1508.47 1165.75 1515.44 1151.21 1517.71 C 1136.18 1517.99 1082.28 1520.61 1071.8 1514.34 C 1065.25 1510.42 1060.09 1503.9 1058.43 1496.39 C 1055.73 1484.18 1055.84 1430.75 1057.62 1417.68 C 1058.29 1412.73 1059.45 1408.12 1062.24 1403.92 C 1067.29 1396.32 1074.89 1392.94 1083.57 1391.29 z" fill="#1A2332" transform="translate(0,0)"></path>
<path d="M 633.947 1631.49 L 647.33 1631.7 C 647.732 1641.25 647.592 1651.77 647.661 1661.41 C 623.16 1660.96 597.814 1661.23 573.25 1661.18 L 556.103 1661.16 L 556.084 1631.92 L 633.947 1631.49 z" fill="rgb(255,255,255)" transform="translate(0,0)"></path>
<path d="M 1400.53 1632.45 C 1429.14 1631.59 1460.12 1632.16 1488.92 1632.25 C 1489.06 1641.59 1489 1650.94 1488.75 1660.29 C 1459.78 1660.87 1429.19 1660.37 1400.1 1660.37 C 1400.05 1652.95 1399.57 1639.34 1400.53 1632.45 z" fill="rgb(255,255,255)" transform="translate(0,0)"></path>
<metadata><recraft-signature>{"signed_by": "recraft", "signature_b64": "Gu+DF73AmG9M5vUPLv+61le00p3G1aLB6gqZmdVqrRaimSGmXavJ74zc38hxFQJqVNsrkLEuUP6h0ngExifqCw==", "signing_algo": "Ed25519", "generation_timestamp": 1777314340, "identifier": "11f87afd-a955-4910-8784-bbf7d29906bd"}</recraft-signature></metadata></svg>